<?xml version="1.0" encoding="utf-8"?>
<!-- Generator: Adobe Illustrator 15.0.0, SVG Export Plug-In  -->
<!DOCTYPE svg PUBLIC "-//W3C//DTD SVG 1.1//EN" "http://www.w3.org/Graphics/SVG/1.1/DTD/svg11.dtd" [
	<!ENTITY ns_flows "http://ns.adobe.com/Flows/1.0/">
]>
<svg version="1.1"
	 xmlns="http://www.w3.org/2000/svg" xmlns:xlink="http://www.w3.org/1999/xlink" xmlns:a="http://ns.adobe.com/AdobeSVGViewerExtensions/3.0/"
	 x="0px" y="0px" width="522px" height="252px" viewBox="-9 -9.543 522 252"
	 overflow="visible" enable-background="new -9 -9.543 522 252" xml:space="preserve">
<defs>
</defs>
<g>
	<path fill="#FF6633" d="M470.73,0.006L116.454,0C52.137,0,0,52.129,0,116.441c0,64.316,52.137,116.473,116.454,116.473
		l354.277-0.016c18.387,0,33.27-14.887,33.27-33.266V33.277C504,14.9,489.117,0.006,470.73,0.006z"/>
</g>
<path fill="#FFFFFF" d="M116.454,33.285c-45.875,0-83.182,37.312-83.182,83.172c0,45.564,36.811,82.66,82.246,83.16v-83.084H88.295
	c-8.086,0-14.672,6.59-14.672,14.691c0,8.086,6.586,14.656,14.672,14.656v18.145c-18.084,0-32.801-14.73-32.801-32.801
	c0-18.104,14.717-32.811,32.801-32.811h27.223v-9.17c0-15.055,12.238-27.314,27.293-27.314c15.045,0,27.309,12.26,27.309,27.314
	c0,15.051-12.264,27.289-27.309,27.289h-9.176v81.303c37.645-7.938,66-41.408,66-81.379
	C199.636,70.598,162.317,33.285,116.454,33.285z"/>
<path fill="#FFFFFF" d="M151.991,89.244c0-5.057-4.107-9.17-9.18-9.17c-5.055,0-9.176,4.113-9.176,9.17v9.17h9.176
	C147.884,98.414,151.991,94.293,151.991,89.244z"/>
<path fill="#FFFFFF" d="M256.538,114.084c1.703,0,3.301,0.311,4.773,0.955c1.492,0.654,2.805,1.539,3.941,2.678l-2.918,2.904
	c-1.617-1.607-3.539-2.4-5.797-2.4c-1.145,0-2.209,0.197-3.197,0.631c-1.008,0.418-1.871,1.014-2.621,1.77
	c-0.754,0.736-1.348,1.607-1.77,2.596c-0.441,1.016-0.668,2.062-0.668,3.219c0,1.133,0.227,2.203,0.668,3.195
	c0.422,0.992,1.016,1.852,1.74,2.617c0.75,0.734,1.629,1.332,2.621,1.75c1.018,0.43,2.082,0.648,3.227,0.648
	c2.227,0,4.152-0.797,5.797-2.383l2.918,2.891c-1.137,1.133-2.449,2.016-3.941,2.656c-1.473,0.641-3.07,0.953-4.773,0.953
	c-1.711,0-3.311-0.312-4.801-0.953c-1.498-0.672-2.803-1.539-3.936-2.656s-2.012-2.422-2.662-3.914
	c-0.668-1.504-0.992-3.109-0.992-4.805c0-1.664,0.324-3.25,0.992-4.766c0.65-1.502,1.529-2.818,2.662-3.939
	c1.133-1.133,2.438-2.02,3.936-2.668C253.228,114.41,254.827,114.084,256.538,114.084z"/>
<path fill="#FFFFFF" d="M290.194,114.084v4.137h-12.352v6.176h12.352v4.094h-12.352v6.156h12.352v4.117h-16.445v-24.68H290.194z"/>
<path fill="#FFFFFF" d="M314.523,138.764l-4.77-8.215h-6.958v8.215h-4.102v-24.68h12.349c2.254,0,4.191,0.793,5.793,2.424
	c1.617,1.605,2.422,3.533,2.422,5.791c0,1.715-0.484,3.266-1.461,4.66c-0.945,1.391-2.148,2.367-3.625,2.961l5.086,8.844H314.523z
	 M311.043,118.221h-8.247v8.18l8.247,0.035c1.121,0,2.082-0.398,2.879-1.211c0.805-0.812,1.215-1.781,1.215-2.926
	c0-1.117-0.41-2.076-1.215-2.889C313.125,118.604,312.164,118.221,311.043,118.221z"/>
<path fill="#FFFFFF" d="M324.527,114.084h20.594v4.137h-8.215v20.543h-4.133v-20.543h-8.246V114.084z"/>
<path fill="#FFFFFF" d="M352.926,114.084h4.105v24.68h-4.105V114.084z"/>
<path fill="#FFFFFF" d="M381.961,114.084v4.137h-12.336v6.176h12.336v4.094h-12.336v10.273h-4.094v-24.68H381.961z"/>
<path fill="#FFFFFF" d="M390.469,114.084h4.082v24.68h-4.082V114.084z"/>
<path fill="#FFFFFF" d="M419.492,114.084v4.137h-12.348v6.176h12.348v4.094h-12.348v6.156h12.348v4.117h-16.43v-24.68H419.492z"/>
<path fill="#FFFFFF" d="M427.992,114.084h8.227c1.672,0,3.258,0.326,4.762,0.979c1.488,0.648,2.801,1.535,3.926,2.668
	c1.133,1.121,2.023,2.438,2.672,3.916c0.656,1.504,0.992,3.086,0.992,4.789c0,1.68-0.336,3.266-0.992,4.766
	c-0.648,1.48-1.523,2.797-2.648,3.914c-1.117,1.137-2.422,2.023-3.922,2.695c-1.516,0.641-3.117,0.953-4.789,0.953h-8.227V114.084z
	 M436.219,134.646c1.133,0,2.199-0.219,3.203-0.648c0.992-0.418,1.855-1.016,2.605-1.773c0.754-0.758,1.332-1.641,1.754-2.633
	c0.445-0.992,0.656-2.059,0.656-3.156c0-1.121-0.211-2.188-0.656-3.18c-0.422-0.992-1.016-1.855-1.766-2.635
	c-0.766-0.756-1.633-1.352-2.633-1.77c-0.992-0.434-2.059-0.631-3.164-0.631h-4.117v16.426H436.219z"/>
<path fill="#FFFFFF" d="M230.784,153.287c1.701,0,3.299,0.328,4.787,0.98c1.473,0.629,2.791,1.512,3.922,2.652l-2.916,2.922
	c-1.613-1.625-3.543-2.418-5.793-2.418c-1.15,0-2.211,0.223-3.201,0.629c-1.006,0.438-1.869,1.031-2.621,1.773
	c-0.75,0.734-1.346,1.625-1.771,2.621c-0.438,0.992-0.664,2.051-0.664,3.191c0,1.133,0.227,2.203,0.664,3.211
	c0.426,0.996,1.021,1.859,1.744,2.598c0.75,0.746,1.627,1.34,2.635,1.77c1.004,0.422,2.064,0.633,3.215,0.633
	c2.223,0,4.15-0.773,5.793-2.383l2.916,2.891c-1.131,1.133-2.449,2.016-3.922,2.672c-1.488,0.629-3.086,0.953-4.787,0.953
	c-1.713,0-3.314-0.324-4.801-0.969c-1.504-0.652-2.807-1.539-3.939-2.656s-2.01-2.422-2.662-3.914
	c-0.664-1.504-0.994-3.09-0.994-4.805c0-1.664,0.33-3.25,0.994-4.75c0.652-1.492,1.529-2.812,2.662-3.953
	c1.133-1.117,2.436-2.004,3.939-2.668C227.47,153.615,229.071,153.287,230.784,153.287z"/>
<path fill="#FFFFFF" d="M257.03,153.287c3.414,0,6.328,1.211,8.723,3.633c2.438,2.438,3.668,5.328,3.668,8.719
	c0,3.453-1.23,6.355-3.668,8.719c-2.395,2.414-5.309,3.625-8.723,3.625c-3.4,0-6.318-1.211-8.711-3.625
	c-2.424-2.402-3.627-5.289-3.627-8.719c0-3.391,1.203-6.281,3.627-8.719C250.683,154.498,253.603,153.287,257.03,153.287z
	 M257.03,157.424c-2.238,0-4.195,0.793-5.838,2.418c-1.584,1.609-2.363,3.539-2.363,5.797c0,2.254,0.779,4.207,2.363,5.828
	c1.643,1.609,3.6,2.383,5.838,2.383c2.266,0,4.191-0.773,5.805-2.383c1.617-1.621,2.422-3.574,2.422-5.828
	c0-2.258-0.805-4.188-2.422-5.797C261.222,158.217,259.296,157.424,257.03,157.424z"/>
<path fill="#FFFFFF" d="M280.851,163.217v14.766h-4.094v-24.695l12.352,12.352l12.383-12.352v24.695h-4.164v-14.766l-8.219,8.25
	L280.851,163.217z"/>
<path fill="#FFFFFF" d="M315.922,169.771v8.211h-4.078v-24.695h12.336c2.266,0,4.195,0.812,5.809,2.422
	c1.613,1.625,2.418,3.555,2.418,5.828c0,2.262-0.805,4.211-2.418,5.852c-1.613,1.586-3.543,2.383-5.809,2.383H315.922z
	 M315.922,157.424v8.215h8.258c1.121,0,2.078-0.395,2.891-1.211c0.809-0.812,1.203-1.766,1.203-2.891
	c0-1.133-0.395-2.094-1.203-2.898c-0.812-0.816-1.77-1.215-2.891-1.215H315.922z"/>
<path fill="#FFFFFF" d="M350.707,153.287c3.418,0,6.316,1.211,8.727,3.633c2.434,2.438,3.652,5.328,3.652,8.719
	c0,3.453-1.219,6.355-3.652,8.719c-2.41,2.414-5.309,3.625-8.727,3.625c-3.414,0-6.316-1.211-8.707-3.625
	c-2.422-2.402-3.629-5.289-3.629-8.719c0-3.391,1.207-6.281,3.629-8.719C344.359,154.498,347.281,153.287,350.707,153.287z
	 M350.707,157.424c-2.25,0-4.191,0.793-5.832,2.418c-1.59,1.609-2.383,3.539-2.383,5.797c0,2.254,0.793,4.207,2.383,5.828
	c1.641,1.609,3.582,2.383,5.832,2.383c2.254,0,4.191-0.773,5.793-2.383c1.617-1.621,2.422-3.574,2.422-5.828
	c0-2.258-0.805-4.188-2.422-5.797C354.898,158.217,352.961,157.424,350.707,157.424z"/>
<path fill="#FFFFFF" d="M370.664,153.256l16.445,14.797v-14.797h4.121v24.691v-0.035v0.07l-16.457-14.801v14.766h-4.109V153.256z"/>
<path fill="#FFFFFF" d="M416.172,153.287v4.137H403.82v6.191h12.352v4.078H403.82v6.156h12.352v4.133h-16.445v-24.695H416.172z"/>
<path fill="#FFFFFF" d="M424.672,153.256l16.445,14.797v-14.797h4.117v24.691v-0.035v0.07l-16.469-14.801v14.766h-4.094V153.256z"/>
<path fill="#FFFFFF" d="M453.734,153.287h20.594v4.137h-8.199v20.559h-4.137v-20.559h-8.258V153.287z"/>
<path fill="#FFFFFF" d="M218.388,54.918h30.934v6.189h-12.35v30.871h-6.188V61.107h-12.396V54.918z"/>
<path fill="#FFFFFF" d="M263.94,54.918h6.133v15.439h18.527V54.918h6.203v37.061h-6.203V76.547h-18.527v15.432h-6.133V54.918z"/>
<path fill="#FFFFFF" d="M334.578,91.979l-7.168-12.33h-10.453v12.33h-6.133V54.918h18.512c3.383,0,6.289,1.234,8.711,3.648
	c2.422,2.422,3.609,5.305,3.609,8.705c0,2.541-0.711,4.885-2.164,6.98c-1.43,2.074-3.242,3.541-5.441,4.428l7.605,13.299H334.578z
	 M329.336,61.107h-12.379v12.297l12.379,0.055c1.688,0,3.117-0.615,4.336-1.82c1.188-1.209,1.812-2.678,1.812-4.367
	c0-1.701-0.625-3.125-1.812-4.336C332.453,61.725,331.023,61.107,329.336,61.107z"/>
<path fill="#FFFFFF" d="M381.656,54.918v6.189h-18.508v9.299h18.508v6.141h-18.508v9.242h18.508v6.189h-24.66V54.918H381.656z"/>
<path fill="#FFFFFF" d="M420.945,85.789h-17.055l-3.141,6.189h-6.883l18.523-37.061l18.527,37.061h-6.887L420.945,85.789z
	 M406.938,79.648h10.891l-5.438-10.885L406.938,79.648z"/>
<path fill="#FFFFFF" d="M443.469,54.918h12.336c2.504,0,4.898,0.51,7.133,1.48c2.258,0.979,4.238,2.309,5.91,3.994
	c1.684,1.715,3.016,3.662,3.996,5.898c0.977,2.238,1.484,4.641,1.484,7.168c0,2.508-0.508,4.908-1.484,7.133
	c-0.98,2.25-2.297,4.221-3.984,5.92c-1.672,1.678-3.625,3.018-5.875,3.986c-2.281,0.992-4.676,1.48-7.18,1.48h-12.336V54.918z
	 M455.805,85.789c1.711,0,3.297-0.326,4.801-0.957c1.488-0.652,2.801-1.537,3.926-2.67c1.117-1.139,1.992-2.479,2.645-3.959
	c0.637-1.494,0.965-3.086,0.965-4.744c0-1.678-0.328-3.264-0.965-4.768c-0.652-1.479-1.527-2.816-2.66-3.936
	c-1.148-1.156-2.48-2.041-3.969-2.686c-1.488-0.635-3.07-0.963-4.742-0.963h-6.203v24.682H455.805z"/>
</svg>
